<svg width="142" height="32" viewBox="0 0 142 32" fill="none" xmlns="http://www.w3.org/2000/svg">
<g clip-path="url(#clip0)">
<path d="M140.855 10.3964L140.45 15.2601H138.463C135.293 15.2601 133.644 17.8022 133.644 20.2384V31.2231H128.024V10.3964H133.348L133.469 12.9959C134.586 11.2134 136.54 10.3964 138.95 10.3964H140.855ZM101.888 31.223H96.2621V20.213C96.2621 17.9073 96.0634 15.0052 92.8205 15.0052C89.6971 15.0052 88.4525 17.2593 88.4525 19.8839V31.223H82.8289V10.3963H88.0432L88.1619 13.0587C89.2794 11.2762 91.3611 9.88822 94.4314 9.88822C100.1 9.88822 101.888 13.9349 101.888 18.1462V31.223ZM80.3758 26.3579L79.9826 31.0967C78.6337 31.4585 77.436 31.5883 75.9869 31.5883C70.6865 31.5883 69.149 29.1578 69.149 24.2727V4.52328H74.7741V10.3967H80.3714L79.9826 15.2597H74.7741V23.8498C74.7741 25.8102 75.3118 26.8691 77.3225 26.8691C78.1968 26.8691 79.1694 26.7638 80.3758 26.3579ZM67.3021 10.3964L66.8665 15.2601H65.3379C62.173 15.2601 60.5992 17.799 60.5992 20.2384V31.2231H54.9735V10.3964H60.2997L60.4107 12.9959C61.5339 11.2134 63.4886 10.3964 65.9021 10.3964H67.3021ZM29.5885 28.9157C25.7732 30.9567 21.9622 32.1341 16.9284 31.9878C7.59638 31.703 0.863831 25.9083 0.863831 16.1206C0.863831 6.37567 7.66131 0.149289 16.9328 0.00305261C21.6326 -0.068805 25.8381 1.12378 29.1253 4.02456L25.1656 8.03029C23.1314 6.29625 20.1387 5.2827 16.5622 5.44468C10.7272 5.71635 7.21124 9.9566 7.13372 15.7865C7.05744 22.103 10.9309 26.4561 16.9858 26.615C19.8349 26.6862 21.8759 26.3035 23.642 25.5106V19.0541H17.3489L17.7736 13.7587H29.5885V28.9157ZM125.512 22.7889H110.09C110.529 25.4502 112.621 27.0513 115.226 27.1238C117.759 27.1925 119.176 26.4273 121.028 24.5514L124.698 27.35C122.09 30.5628 118.96 31.7321 115.394 31.7321C109.123 31.7321 104.424 27.3468 104.424 20.8091C104.424 14.2782 109.099 9.88797 115.16 9.88797C121.839 9.88797 125.512 13.9347 125.512 21.1179V22.7889ZM119.876 18.4347C119.704 15.8037 117.732 14.1402 115.018 14.2461C112.286 14.3494 110.466 16.1289 110.09 18.4347H119.876ZM51.4322 17.5851V31.2229H46.4728L46.3498 29.1693C44.8282 31.0539 42.3579 31.7322 39.8146 31.7322C35.9847 31.7322 32.366 29.8438 32.2903 25.4453C32.1763 18.5318 40.0711 18.0408 45.0292 18.0408H46.0201V17.7673C46.0201 15.4811 44.5074 14.2462 41.6589 14.2462C39.6141 14.2462 37.5958 15.0663 36.1032 16.4657L32.8576 13.1684C35.8044 10.7794 38.8703 9.88814 42.1367 9.88814C48.5881 9.88814 51.4322 12.8696 51.4322 17.5851ZM46.0201 22.1405H45.2379C42.5747 22.1462 37.8971 22.2773 37.9148 25.062C37.94 28.9852 46.0201 27.7384 46.0201 23.0072V22.1405Z" fill="black"/>
</g>
<defs>
<clipPath id="clip0">
<rect width="140.632" height="32" fill="white" transform="translate(0.705933)"/>
</clipPath>
</defs>
</svg>
