<svg width="78" height="32" viewBox="0 0 78 32" fill="none" xmlns="http://www.w3.org/2000/svg">
<g clip-path="url(#clip0)">
<path fill-rule="evenodd" clip-rule="evenodd" d="M10.563 7.2229C5.15732 7.2229 0.652588 9.53112 0.652588 16.4953C0.652588 22.0124 3.68173 25.4866 10.7027 25.4866C18.967 25.4866 19.4967 20.0074 19.4967 20.0074H15.4923C15.4923 20.0074 14.6339 22.9577 10.4586 22.9577C7.05788 22.9577 4.61219 20.6457 4.61219 17.4048H19.9156V15.3714C19.9156 12.1651 17.8933 7.2229 10.5632 7.2229H10.563ZM10.4235 9.82194C13.6608 9.82194 15.8675 11.8181 15.8675 14.8096H4.70052C4.70052 11.6338 7.58097 9.82194 10.4235 9.82194Z" fill="black"/>
<path fill-rule="evenodd" clip-rule="evenodd" d="M19.9146 0.479736V21.9897C19.9146 23.2106 19.828 24.9251 19.828 24.9251H23.6474C23.6474 24.9251 23.7843 23.6939 23.7843 22.5685C23.7843 22.5685 25.6713 25.5399 30.8022 25.5399C36.2054 25.5399 39.8755 21.7644 39.8755 16.3554C39.8755 11.3234 36.5043 7.27617 30.811 7.27617C25.4797 7.27617 23.823 10.1739 23.823 10.1739V0.479928H19.9146V0.479736ZM29.825 9.93654C33.4942 9.93654 35.8272 12.6774 35.8272 16.3552C35.8272 20.2991 33.1326 22.8791 29.8514 22.8791C25.9354 22.8791 23.823 19.8018 23.823 16.3901C23.823 13.2114 25.7185 9.93635 29.8252 9.93635L29.825 9.93654Z" fill="black"/>
<path fill-rule="evenodd" clip-rule="evenodd" d="M49.3654 7.22328C41.2327 7.22328 40.7111 11.7053 40.7111 12.4216H44.759C44.759 12.4216 44.9711 9.80479 49.0861 9.80479C51.7601 9.80479 53.8319 11.0367 53.8319 13.4049V14.2479H49.0861C42.7856 14.2479 39.455 16.1027 39.455 19.8674C39.455 23.572 42.5323 25.5881 46.6916 25.5881C52.3596 25.5881 54.1855 22.4358 54.1855 22.4358C54.1855 23.6893 54.2817 24.9249 54.2817 24.9249H57.8801C57.8801 24.9249 57.7406 23.3935 57.7406 22.4136V13.9446C57.7406 8.39158 53.2905 7.2229 49.3656 7.2229L49.3654 7.22328ZM53.8319 16.7768V17.9007C53.8319 19.3665 52.9334 23.0111 47.6422 23.0111C44.7449 23.0111 43.5026 21.5558 43.5026 19.8676C43.5026 16.7966 47.6861 16.7768 53.8319 16.7768Z" fill="black"/>
<path fill-rule="evenodd" clip-rule="evenodd" d="M55.56 7.927H60.1138L66.6494 21.1056L73.1702 7.927H77.2953L65.4181 31.3888H61.091L64.5183 24.8487L55.5598 7.927H55.56Z" fill="black"/>
</g>
<defs>
<clipPath id="clip0">
<rect width="77.4194" height="32" fill="white" transform="translate(0.571899)"/>
</clipPath>
</defs>
</svg>
