<svg width="175" height="24" viewBox="0 0 175 24" fill="none" xmlns="http://www.w3.org/2000/svg">
<g clip-path="url(#clip0)">
<path d="M38.1825 20.3683C34.7086 20.3895 31.5648 18.3126 30.2209 15.109C28.877 11.9054 29.5977 8.20771 32.0471 5.74366C34.4961 3.27959 38.1896 2.53629 41.4012 3.86087C44.6128 5.18546 46.7085 8.31651 46.7085 11.7905C46.7165 16.5109 42.9029 20.3475 38.1825 20.3683ZM38.1825 0.000162501C33.4141 -0.024803 29.1012 2.82881 27.2594 7.22697C25.4171 11.6256 26.4096 16.7007 29.7724 20.0814C33.1357 23.4621 38.2056 24.481 42.6137 22.6618C47.0218 20.8426 49.8975 16.5447 49.8975 11.7763C49.8975 5.29615 44.6623 0.0340779 38.1825 0.000162501Z" fill="black"/>
<path d="M81.6841 0.678511C81.5755 0.679454 81.4755 0.736454 81.42 0.829248L69.3469 17.2452L57.2743 0.829248C57.2178 0.735037 57.1154 0.677568 57.0056 0.678511C56.8304 0.678511 56.6876 0.818882 56.6853 0.994117V22.8648H59.8789V9.94872L69.1589 22.4786C69.2052 22.5347 69.2743 22.5672 69.3469 22.5672C69.42 22.5672 69.4886 22.5347 69.5355 22.4786L78.8149 9.94872V22.8648H82.0086V0.994117C82.0075 0.909328 81.9726 0.828305 81.912 0.768957C81.8503 0.709602 81.7686 0.677099 81.6841 0.678511Z" fill="black"/>
<path d="M101.534 11.7011H94.0915V3.88173H101.534C103.69 3.88173 105.439 5.63026 105.439 7.78673C105.439 9.94319 103.69 11.6917 101.534 11.6917V11.7011ZM101.534 0.669189H90.8881V22.8555H94.0818V14.9136H101.525C105.455 14.9136 108.642 11.727 108.642 7.79616C108.642 3.86525 105.455 0.678612 101.525 0.678612" fill="black"/>
<path d="M11.8134 20.3688C7.7888 20.3914 4.28936 17.6126 3.39955 13.6879C2.50974 9.76264 4.46836 5.74647 8.10954 4.0314C11.7503 2.31585 16.0943 3.36298 18.5541 6.54818L20.8481 4.28247C17.6822 0.457565 12.4573 -0.971124 7.78594 0.711459C3.1141 2.39404 0 6.82567 0 11.791C0 16.7563 3.1141 21.1879 7.78594 22.8705C12.4573 24.553 17.6822 23.1244 20.8481 19.2995L18.5541 17.0337C16.9502 19.1356 14.4574 20.3688 11.8134 20.3688Z" fill="black"/>
<path d="M146.505 9.74628L144.06 9.19045C141.431 8.62519 141.234 6.83519 141.234 6.27468C141.234 4.46112 142.68 3.42011 145.2 3.42011C147.791 3.42011 149.684 5.17712 150.263 5.77536L152.51 3.56613C150.4 1.35221 148.012 0.268799 145.2 0.268799C140.918 0.268799 138.04 2.67585 138.04 6.2605C138.04 7.40045 138.04 10.8674 143.796 12.2852L146.471 12.9164C148.954 13.5994 150.16 14.8006 150.16 16.5812C150.16 18.6679 148.149 20.1235 145.275 20.1235C142.199 20.1235 140.306 18.0084 139.741 17.2972L137.522 19.4828C139.034 21.2068 141.615 23.2512 145.308 23.2512C149.91 23.2512 153.382 20.3778 153.382 16.5718C153.382 13.1614 151.027 10.7967 146.528 9.73685" fill="black"/>
<path d="M167.999 9.74628L165.554 9.19045C162.926 8.62519 162.727 6.83519 162.727 6.27468C162.727 4.46112 164.174 3.42011 166.694 3.42011C169.285 3.42011 171.178 5.17712 171.753 5.77536L174.005 3.56613C171.894 1.35221 169.501 0.268799 166.694 0.268799C162.412 0.268799 159.534 2.67585 159.534 6.2605C159.534 7.40045 159.534 10.8674 165.29 12.2852L167.98 12.9023C170.458 13.5853 171.663 14.7865 171.663 16.567C171.663 18.6538 169.657 20.1093 166.783 20.1093C163.707 20.1093 161.809 17.9943 161.249 17.283L158.997 19.4923C160.509 21.2163 163.09 23.2606 166.783 23.2606C171.386 23.2606 174.857 20.3872 174.857 16.5812C174.857 13.1708 172.502 10.8062 168.003 9.74628" fill="black"/>
<path d="M117.959 13.9668L121.615 6.9953L125.275 13.9668H117.959ZM121.615 0.480713C121.489 0.481655 121.375 0.555139 121.323 0.669133L109.683 22.8649H113.296L116.273 17.1794H126.951L129.933 22.8649H133.542L121.907 0.669133C121.853 0.556081 121.74 0.483068 121.615 0.480713Z" fill="black"/>
<path d="M33.147 14.565L35.4033 16.8354L43.2133 8.9831L40.9522 6.71265L33.147 14.565Z" fill="#f7f7f7"/>
</g>
<defs>
<clipPath id="clip0">
<rect width="174.857" height="24" fill="white"/>
</clipPath>
</defs>
</svg>
