<svg width="107" height="32" viewBox="0 0 107 32" fill="none" xmlns="http://www.w3.org/2000/svg">
<g clip-path="url(#clip0)">
<path d="M75.9144 6.528V9.792C75.9144 9.92 75.7864 10.048 75.6584 10.048H70.0296C69.9016 10.048 69.7741 9.92 69.7741 9.792V6.528C69.7741 6.4 69.9016 6.272 70.0296 6.272H75.6584C75.7864 6.272 75.9144 6.4 75.9144 6.528ZM75.5303 11.136H64.6569C64.5289 11.136 64.3374 11.264 64.2734 11.392L62.8659 16.704L62.8019 16.96L61.139 11.264C61.075 11.136 60.947 11.008 60.755 11.008H56.5337C56.4057 11.008 56.2137 11.136 56.1497 11.264L54.5509 16.576L54.487 16.832L54.423 16.576L53.7194 13.952L53.0159 11.328C52.9519 11.2 52.824 11.072 52.6321 11.072H44.1251V6.464C44.1251 6.336 43.9332 6.144 43.7413 6.208L38.3685 7.872C38.1766 7.936 38.1127 8 38.1127 8.128V11.008H36.7055C36.5776 11.008 36.4497 11.136 36.4497 11.264V15.36C36.4497 15.488 36.5776 15.616 36.7055 15.616H38.1127V20.608C38.1127 24.128 40.0316 25.792 43.5494 25.792C45.0206 25.792 46.4278 25.472 47.3872 24.96V20.736C47.3872 20.544 47.1953 20.48 47.0674 20.48C46.4917 20.736 46.044 20.8 45.5323 20.8C44.5728 20.8 44.0612 20.416 44.0612 19.328V15.68H47.1313C47.2593 15.68 47.3872 15.552 47.3872 15.424V11.968L51.4168 25.344C51.4808 25.472 51.6087 25.6 51.8006 25.6H56.2137C56.3417 25.6 56.5337 25.472 56.5977 25.344L58.5167 19.392L59.4761 22.464L60.3716 25.28C60.4356 25.408 60.5636 25.536 60.755 25.536H65.2329C65.3603 25.536 65.5523 25.408 65.6163 25.28L69.7101 11.84V25.28C69.7101 25.408 69.8382 25.536 69.9656 25.536H75.4024C75.5303 25.536 75.6584 25.408 75.6584 25.28V11.456C75.8503 11.264 75.7224 11.136 75.5303 11.136ZM82.6945 6.272H77.2573C77.1298 6.272 77.0018 6.4 77.0018 6.528V25.408C77.0018 25.536 77.1298 25.664 77.2573 25.664H82.6945C82.822 25.664 82.95 25.536 82.95 25.408V6.528C83.014 6.4 82.886 6.272 82.6945 6.272ZM89.9862 6.272H84.3575C84.2295 6.272 84.1015 6.4 84.1015 6.528V9.792C84.1015 9.92 84.2295 10.048 84.3575 10.048H89.9862C90.1137 10.048 90.2417 9.92 90.2417 9.792V6.528C90.2417 6.4 90.1137 6.272 89.9862 6.272ZM89.8582 11.136H84.4215C84.2935 11.136 84.1655 11.264 84.1655 11.392V25.408C84.1655 25.536 84.2935 25.664 84.4215 25.664H89.8582C89.9862 25.664 90.1137 25.536 90.1137 25.408V11.456C90.1777 11.264 90.0497 11.136 89.8582 11.136ZM107 18.304C107 22.464 103.61 25.92 98.8128 25.92C94.0795 25.92 90.6897 22.464 90.6897 18.368V18.304C90.6897 14.208 94.0795 10.688 98.8768 10.688C103.61 10.816 107 14.272 107 18.304ZM101.243 18.368C101.243 16.96 100.156 15.808 98.8768 15.808C97.5333 15.808 96.5739 16.96 96.5739 18.304V18.368C96.5739 19.776 97.6613 20.928 98.9408 20.928C100.22 20.928 101.243 19.84 101.243 18.368ZM32.6759 16C32.6759 24.832 25.5121 32 16.6854 32C7.85859 32 0.694824 24.832 0.694824 16C0.694824 7.168 7.85859 0 16.6854 0C25.5121 0 32.6759 7.168 32.6759 16ZM28.5183 16C28.5183 9.472 23.2735 4.224 16.7493 4.224C10.2252 4.224 4.98029 9.472 4.98029 16C4.98029 22.528 10.2252 27.776 16.7493 27.776C23.2095 27.776 28.5183 22.528 28.5183 16ZM20.715 15.36C22.5699 15.36 24.041 13.888 24.041 12.032C24.041 10.176 22.5699 8.704 20.715 8.704C18.8601 8.704 17.389 10.176 17.389 12.032C17.389 13.888 18.8601 15.36 20.715 15.36ZM20.715 23.296C22.5699 23.296 24.041 21.824 24.041 19.968C24.041 18.112 22.5699 16.64 20.715 16.64C18.8601 16.64 17.389 18.112 17.389 19.968C17.389 21.824 18.8601 23.296 20.715 23.296ZM12.7197 23.296C14.5746 23.296 16.0458 21.824 16.0458 19.968C16.0458 18.112 14.5746 16.64 12.7197 16.64C10.8648 16.64 9.39367 18.112 9.39367 19.968C9.39367 21.824 10.8648 23.296 12.7197 23.296ZM12.7197 15.36C14.5746 15.36 16.0458 13.888 16.0458 12.032C16.0458 10.176 14.5746 8.704 12.7197 8.704C10.8648 8.704 9.39367 10.176 9.39367 12.032C9.39367 13.824 10.8648 15.36 12.7197 15.36Z" fill="black"/>
</g>
<defs>
<clipPath id="clip0">
<rect width="106.305" height="32" fill="white" transform="translate(0.694824)"/>
</clipPath>
</defs>
</svg>
