<svg width="157" height="24" viewBox="0 0 157 24" fill="none" xmlns="http://www.w3.org/2000/svg">
<g clip-path="url(#clip0)">
<path d="M153.492 6.57195C153.492 5.85767 154.029 5.32052 154.72 5.32052C155.4 5.32052 155.943 5.85767 155.943 6.57195C155.943 7.29767 155.406 7.83481 154.72 7.83481C154.029 7.83481 153.492 7.29767 153.492 6.57195ZM154.72 8.08624C155.543 8.08624 156.246 7.44624 156.246 6.57195C156.246 5.70909 155.543 5.06909 154.72 5.06909C153.892 5.06909 153.189 5.70909 153.189 6.57195C153.189 7.44624 153.892 8.08624 154.72 8.08624ZM154.406 6.69195H154.709L155.166 7.44624H155.463L154.972 6.68053C155.223 6.65195 155.423 6.51481 155.423 6.20053C155.423 5.85767 155.223 5.70338 154.812 5.70338H154.149V7.44053H154.417V6.69195H154.406ZM154.406 6.4691V5.93195H154.766C154.949 5.93195 155.143 5.97196 155.143 6.1891C155.143 6.45767 154.943 6.4691 154.72 6.4691H154.406Z" fill="black"/>
<path d="M10.2001 15.115C10.1029 15.475 9.96578 15.5436 9.74863 15.5436C9.74863 15.5436 3.33149 15.5436 3.02292 15.5436C3.02292 15.235 3.02292 6.34933 3.02292 6.34933C3.02292 6.10933 3.08578 5.98361 3.44006 5.88647L3.55435 5.85218V5.28076H3.40006H0.348633V5.84647L0.468633 5.88076C0.822919 5.97218 0.885776 6.10361 0.885776 6.34361V16.3436C0.885776 16.5779 0.822919 16.7093 0.468633 16.8065L0.348633 16.835V17.4065H9.74863C9.98863 17.4065 10.1029 17.4636 10.2001 17.835L10.2286 17.955H10.7886V14.995H10.2286L10.2001 15.115Z" fill="black"/>
<path d="M35.9828 15.4979L35.96 15.4465L32.1657 6.4579C32.0457 6.1779 32.0342 6.13218 32.0342 6.09218C32.0342 6.00076 32.0342 5.94933 32.3028 5.87504L32.4171 5.84076V5.28076H32.2571H29.0171V5.85218L29.1371 5.88647C29.3942 5.94361 29.3942 5.99504 29.3942 6.06361C29.3942 6.12647 29.3657 6.20076 29.2628 6.46361L25.52 15.7836C25.1371 16.6979 25.04 16.7436 24.7257 16.8008L24.5942 16.8236V17.4065H27.6457V16.8236L27.5142 16.8008C27.1942 16.7493 27.1942 16.6922 27.1942 16.6236C27.1942 16.5379 27.1942 16.5322 27.3085 16.2408C27.3085 16.2408 27.8971 14.7493 28.0571 14.3436C28.2571 14.3436 33.1771 14.3436 33.3771 14.3436C33.4514 14.5208 34.1257 16.1208 34.1257 16.1208C34.2342 16.3836 34.2857 16.5093 34.2857 16.5893C34.2857 16.635 34.2857 16.7608 33.9714 16.8008L33.8285 16.8179V17.4065H37.0857V16.835L36.9657 16.8065C36.4571 16.6865 36.4571 16.6865 35.9828 15.4979ZM32.6 12.4808C32.1942 12.4808 29.1885 12.4808 28.7942 12.4808C28.9428 12.1036 30.4114 8.39504 30.6514 7.79504C30.8971 8.40076 32.44 12.1036 32.6 12.4808Z" fill="black"/>
<path d="M67.0343 17.8349C66.9371 17.4978 66.8286 17.4063 66.5143 17.4063H55.7086V16.7435C55.7086 16.7435 63.2114 7.64063 63.6229 7.14349C63.0057 7.14349 57.1829 7.14349 57.1829 7.14349C56.9143 7.14349 56.7601 7.21206 56.6629 7.57777L56.6286 7.69206H56.0401V5.20635C48.5143 10.5949 44.5544 17.9663 47.1886 21.7549C49.8458 25.5778 58.2 24.2978 65.8572 18.8978C66.2914 18.5892 66.7143 18.2749 67.1314 17.9549H67.0686L67.0343 17.8349ZM74.9086 2.20064C72.2971 -1.55365 64.1829 -0.382217 56.6401 4.7835L56.6629 4.84635C56.7601 5.17778 56.8801 5.28064 57.1829 5.28064H67.64V5.7492C67.64 5.7492 60 15.0463 59.5886 15.5435C60.2057 15.5435 66.5143 15.5435 66.5143 15.5435C66.7829 15.5435 66.9314 15.4749 67.0343 15.1149L67.0686 14.9949H67.6572V17.5378C74.1257 12.2978 77.3486 5.70921 74.9086 2.20064Z" fill="black"/>
<path d="M95.9029 11.0064C96.9658 10.5035 97.4457 9.72639 97.4457 8.54353C97.4457 7.51496 97.0058 6.57782 96.2686 6.04067C95.52 5.50352 94.5543 5.28638 92.9486 5.28638H85.7143H85.5543V5.84067L85.6743 5.87496C86.04 5.96639 86.1029 6.08067 86.1029 6.30353V16.4407C86.1029 16.6121 86.0686 16.7435 85.6743 16.8521L85.5543 16.8807V17.4178H93.0572C94.7486 17.4178 95.6858 17.1892 96.52 16.5892C97.3772 15.9721 97.8115 15.0635 97.8115 13.8921C97.8172 12.475 97.1715 11.515 95.9029 11.0064ZM88.2115 11.9721C88.5086 11.9721 92.7943 11.9721 92.7943 11.9721C94.76 11.9721 95.5658 12.4864 95.5658 13.755C95.5658 15.0064 94.7372 15.5378 92.7943 15.5378C92.7943 15.5378 88.5086 15.5378 88.2115 15.5378C88.2115 15.2578 88.2115 12.2578 88.2115 11.9721ZM94.6915 9.80067C94.2915 10.035 93.8343 10.115 92.8115 10.115C92.8115 10.115 88.5086 10.115 88.2115 10.115C88.2115 9.84067 88.2115 7.42353 88.2115 7.14353C88.5086 7.14353 92.8115 7.14353 92.8115 7.14353C93.88 7.14353 94.3086 7.2121 94.6857 7.45782C95.0515 7.68067 95.2629 8.10924 95.2629 8.62353C95.2686 9.14924 95.0572 9.57782 94.6915 9.80067Z" fill="black"/>
<path d="M122.869 6.44624C121.692 5.53195 120.229 5.06909 118.52 5.06909C116.634 5.06909 115.24 5.49195 114 6.44624C112.554 7.56053 111.657 9.44053 111.657 11.3491C111.657 13.2634 112.532 15.0862 114 16.2348C115.172 17.1662 116.623 17.6177 118.434 17.6177C120.246 17.6177 121.697 17.1662 122.869 16.2348C124.337 15.0691 125.217 13.2405 125.217 11.3491C125.212 9.43481 124.337 7.60053 122.869 6.44624ZM118.434 15.7034C115.68 15.7034 113.903 13.9948 113.903 11.3491C113.903 8.73767 115.697 6.98338 118.366 6.98338C119.88 6.98338 120.949 7.3891 121.834 8.29767C122.583 9.08624 122.966 10.1148 122.966 11.3491C122.96 13.9548 121.143 15.7034 118.434 15.7034Z" fill="black"/>
<path d="M151.514 5.28076H147.966V5.85218L148.086 5.88076C148.337 5.94361 148.337 5.9779 148.337 6.02361C148.337 6.14361 148.229 6.34361 147.994 6.65218C147.994 6.65218 145.789 9.75504 145.223 10.5436C144.989 10.2179 142.491 6.79504 142.491 6.79504C142.229 6.44076 142.114 6.21218 142.114 6.0579C142.114 5.96647 142.114 5.9379 142.394 5.88076L142.52 5.85218V5.28076H138.709V5.8579L138.834 5.88076C139.251 5.95504 139.263 5.96076 140.183 7.13218C140.183 7.12647 143.731 11.9779 144.046 12.4065C144.046 12.5093 144.046 16.3379 144.046 16.3379C144.046 16.5722 143.983 16.7036 143.623 16.8008L143.503 16.8293V17.4008H146.771V16.8293L146.651 16.8008C146.286 16.7036 146.223 16.5722 146.223 16.3379C146.223 16.3379 146.223 12.515 146.223 12.4065C146.286 12.3265 150.126 7.12647 150.126 7.12647C150.989 6.04076 151.12 5.92647 151.526 5.88076L151.669 5.86361V5.28076H151.514Z" fill="black"/>
</g>
<defs>
<clipPath id="clip0">
<rect width="156" height="24" fill="white" transform="translate(0.348633)"/>
</clipPath>
</defs>
</svg>
