<svg width="111" height="37" viewBox="0 0 111 37" fill="none" xmlns="http://www.w3.org/2000/svg">
<path d="M97.3434 15.692C99.9142 15.692 102.349 17.2646 102.862 20.6626H91.4135C91.8926 17.6809 94.1216 15.692 97.3434 15.692ZM102.497 25.6899C101.622 27.0528 99.932 28.1013 97.6181 28.1013C94.4298 28.1013 91.9954 26.3535 91.4135 23.268H105.777C105.846 22.8258 105.881 22.3788 105.882 21.9312C105.882 17.1325 102.527 12.8811 97.3455 12.8811C91.9985 12.8811 88.3646 16.8232 88.3646 21.8977C88.3646 27.035 92.0342 30.9142 97.551 30.9142C100.979 30.9142 103.585 29.3709 105.092 27.035L102.497 25.6899Z" fill="#006BFF"/>
<path d="M86.9536 5.44238H83.9718V30.4675H86.9536V5.44238Z" fill="#006BFF"/>
<path d="M110.204 5.44238H107.223V30.4675H110.204V5.44238Z" fill="#006BFF"/>
<path d="M78.6563 21.8966C78.6563 18.4 76.0174 15.7601 72.5544 15.7601C69.127 15.7601 66.4871 18.4 66.4871 21.8966C66.4871 25.3931 69.127 28.0331 72.5544 28.0331C76.0142 28.0331 78.6563 25.3931 78.6563 21.8966ZM81.6391 13.3287V30.4665H78.6563V27.5183C77.2849 29.6152 75.0916 30.9131 72.178 30.9131C67.4128 30.9131 63.5043 26.97 63.5043 21.8966C63.5043 16.8232 67.4128 12.88 72.178 12.88C75.0916 12.88 77.2849 14.1822 78.6563 16.2738V13.3287H81.6391Z" fill="#006BFF"/>
<path d="M59.0807 27.1681C57.5541 27.7315 55.9062 27.8836 54.3022 27.6092C52.6983 27.3348 51.1947 26.6435 49.9421 25.6047C48.6896 24.5659 47.7322 23.2161 47.1659 21.6906C46.5995 20.165 46.4442 18.5174 46.7155 16.913C46.9867 15.3085 47.675 13.8035 48.7114 12.549C49.7477 11.2944 51.0957 10.3343 52.6201 9.76502C54.1445 9.19571 55.7918 9.03718 57.3968 9.3053C59.0018 9.57342 60.5081 10.2588 61.7647 11.2927C62.2887 11.725 62.7627 12.2145 63.178 12.7521L65.7582 10.8649C64.255 8.89981 62.2022 7.42524 59.8601 6.62809C57.5179 5.83093 54.9918 5.74709 52.6019 6.38719C50.2121 7.02729 48.066 8.36252 46.4359 10.2236C44.8057 12.0847 43.7648 14.3879 43.445 16.8413C43.1253 19.2946 43.5411 21.7877 44.6398 24.0045C45.7385 26.2212 47.4706 28.0619 49.6165 29.2932C51.7625 30.5244 54.2257 31.0909 56.694 30.9207C59.1622 30.7505 61.5243 29.8513 63.481 28.3371L61.7637 25.6217C60.9614 26.2825 60.0546 26.8051 59.0807 27.1681Z" fill="#006BFF"/>
<path d="M24.2799 23.4042C23.134 24.4212 21.7028 25.6867 19.108 25.6867H17.5563C15.6785 25.6867 13.9706 25.0041 12.7481 23.767C11.554 22.5581 10.8966 20.9037 10.8966 19.1077V16.9846C10.8966 15.1887 11.554 13.5342 12.7481 12.3254C13.9706 11.0882 15.6785 10.4067 17.5563 10.4067H19.108C21.706 10.4067 23.134 11.6711 24.2799 12.6881C25.4699 13.7366 26.4963 14.6529 29.2338 14.6529C29.6513 14.6528 30.0681 14.6195 30.4804 14.5533L30.4709 14.5292C30.307 14.122 30.1146 13.7268 29.8953 13.3466L28.0658 10.1771C27.2408 8.74834 26.0542 7.5619 24.6253 6.73704C23.1964 5.91218 21.5756 5.47796 19.9257 5.47803H16.2656C14.6158 5.47796 12.9949 5.91218 11.5661 6.73704C10.1372 7.5619 8.9506 8.74834 8.12557 10.1771L6.29605 13.3466C5.47129 14.7755 5.03711 16.3963 5.03711 18.0462C5.03711 19.696 5.47129 21.3169 6.29605 22.7458L8.12557 25.9152C8.9506 27.344 10.1372 28.5305 11.5661 29.3553C12.9949 30.1802 14.6158 30.6144 16.2656 30.6143H19.9257C21.5756 30.6144 23.1964 30.1802 24.6253 29.3553C26.0542 28.5305 27.2408 27.344 28.0658 25.9152L29.8953 22.751C30.1146 22.3708 30.307 21.9756 30.4709 21.5684L30.4804 21.5453C30.0683 21.4769 29.6514 21.4418 29.2338 21.4405C26.4963 21.4405 25.4699 22.3516 24.2799 23.4053" fill="#006BFF"/>
<path d="M19.1078 12.3307H17.5561C14.6981 12.3307 12.8203 14.372 12.8203 16.9847V19.1078C12.8203 21.7205 14.6981 23.7618 17.5561 23.7618H19.1078C23.2722 23.7618 22.9451 19.5156 29.2336 19.5156C29.8294 19.515 30.424 19.5697 31.0097 19.6792C31.2005 18.5989 31.2005 17.4936 31.0097 16.4133C30.4239 16.5223 29.8294 16.577 29.2336 16.5769C22.943 16.5769 23.2722 12.3307 19.1078 12.3307Z" fill="#006BFF"/>
<path d="M34.6227 21.2308C33.5518 20.4465 32.3168 19.9156 31.0108 19.6781C31.0108 19.6896 31.0108 19.6991 31.0108 19.7095C30.8984 20.3355 30.7228 20.9485 30.4866 21.5391C31.5654 21.7061 32.589 22.1277 33.4726 22.7689C33.4726 22.7773 33.4673 22.7878 33.4642 22.7972C32.327 26.4795 29.9067 29.6318 26.643 31.6813C23.3792 33.7309 19.4886 34.5419 15.6778 33.9668C11.8671 33.3918 8.38895 31.4689 5.87534 28.5476C3.36173 25.6262 1.97936 21.9001 1.97936 18.0462C1.97936 14.1923 3.36173 10.4662 5.87534 7.54483C8.38895 4.62346 11.8671 2.70061 15.6778 2.12557C19.4886 1.55053 23.3792 2.36146 26.643 4.41104C29.9067 6.46062 32.327 9.61288 33.4642 13.2952C33.4642 13.3046 33.4694 13.3151 33.4726 13.3235C32.5891 13.9648 31.5655 14.386 30.4866 14.5523C30.7225 15.1436 30.8981 15.7573 31.0108 16.3839C31.0102 16.3937 31.0102 16.4035 31.0108 16.4133C32.3167 16.1762 33.5518 15.6456 34.6227 14.8616C35.6523 14.0993 35.4531 13.2386 35.2968 12.729C34.0239 8.60041 31.3121 5.06544 27.6541 2.76649C23.9961 0.467542 19.6348 -0.442823 15.3626 0.200826C11.0904 0.844474 7.19085 2.99942 4.3726 6.27408C1.55435 9.54874 0.00439453 13.7258 0.00439453 18.0462C0.00439453 22.3666 1.55435 26.5437 4.3726 29.8183C7.19085 33.093 11.0904 35.2479 15.3626 35.8916C19.6348 36.5352 23.9961 35.6248 27.6541 33.3259C31.3121 31.0269 34.0239 27.492 35.2968 23.3633C35.4531 22.8538 35.6523 21.993 34.6227 21.2308Z" fill="#006BFF"/>
<path d="M30.4803 14.5523C30.0682 14.6207 29.6513 14.6558 29.2337 14.6571C26.4962 14.6571 25.4698 13.746 24.2808 12.6924C23.1339 11.6754 21.7059 10.4099 19.1079 10.4099H17.5562C15.6774 10.4099 13.9705 11.0924 12.748 12.3296C11.5539 13.5385 10.8965 15.1929 10.8965 16.9889V19.1119C10.8965 20.9079 11.5539 22.5624 12.748 23.7712C13.9705 25.0084 15.6774 25.6898 17.5562 25.6898H19.1079C21.7059 25.6898 23.1339 24.4254 24.2808 23.4084C25.4698 22.36 26.4962 21.4437 29.2337 21.4437C29.6512 21.4438 30.068 21.4771 30.4803 21.5433C30.7169 20.9529 30.8925 20.3399 31.0045 19.7137C31.0051 19.7033 31.0051 19.6928 31.0045 19.6823C30.4187 19.5737 29.8242 19.5193 29.2284 19.5198C22.9378 19.5198 23.267 23.767 19.1026 23.767H17.5509C14.6929 23.767 12.8151 21.7247 12.8151 19.1119V16.9847C12.8151 14.372 14.6929 12.3307 17.5509 12.3307H19.1026C23.267 12.3307 22.9399 16.5758 29.2284 16.5758C29.8242 16.5768 30.4188 16.5224 31.0045 16.4133C31.0045 16.4038 31.0045 16.3944 31.0045 16.3839C30.8918 15.7573 30.7161 15.1437 30.4803 14.5523Z" fill="#0AE8F0"/>
<path d="M30.4803 14.5523C30.0682 14.6207 29.6513 14.6558 29.2337 14.6571C26.4962 14.6571 25.4698 13.746 24.2808 12.6924C23.1339 11.6754 21.7059 10.4099 19.1079 10.4099H17.5562C15.6774 10.4099 13.9705 11.0924 12.748 12.3296C11.5539 13.5385 10.8965 15.1929 10.8965 16.9889V19.1119C10.8965 20.9079 11.5539 22.5624 12.748 23.7712C13.9705 25.0084 15.6774 25.6898 17.5562 25.6898H19.1079C21.7059 25.6898 23.1339 24.4254 24.2808 23.4084C25.4698 22.36 26.4962 21.4437 29.2337 21.4437C29.6512 21.4438 30.068 21.4771 30.4803 21.5433C30.7169 20.9529 30.8925 20.3399 31.0045 19.7137C31.0051 19.7033 31.0051 19.6928 31.0045 19.6823C30.4187 19.5737 29.8242 19.5193 29.2284 19.5198C22.9378 19.5198 23.267 23.767 19.1026 23.767H17.5509C14.6929 23.767 12.8151 21.7247 12.8151 19.1119V16.9847C12.8151 14.372 14.6929 12.3307 17.5509 12.3307H19.1026C23.267 12.3307 22.9399 16.5758 29.2284 16.5758C29.8242 16.5768 30.4188 16.5224 31.0045 16.4133C31.0045 16.4038 31.0045 16.3944 31.0045 16.3839C30.8918 15.7573 30.7161 15.1437 30.4803 14.5523Z" fill="#0AE8F0"/>
</svg>
